<?xml version="1.0"?>
<svg xmlns="http://www.w3.org/2000/svg" id="Layer_1" data-name="Layer 1" viewBox="0 0 512 512" width="512" height="512"><title>Package industry</title><g id="_Group_2" data-name=" Group 2"><path d="M486,177.97v47.05l-34.45,3.36a129.281,129.281,0,0,1-18.06,42.86l22.26,26.88-33.19,33.19-26.88-22.26a125.716,125.716,0,0,1-42.85,18.06l-3.37,34.87H326.51V293.1a91.606,91.606,0,1,0-83.5-130.57l-31.88-18.4,1.37-2.37q2.73-5.115,5.89-10l-22.27-26.89,33.19-33.19L256.2,93.95a125.847,125.847,0,0,1,42.85-18.07l3.36-34.86h47.05l3.37,34.86a129.546,129.546,0,0,1,42.85,18.07l26.88-22.27,32.77,33.19-22.26,26.89a125.633,125.633,0,0,1,18.06,42.85Z" style="fill:#f8ec7d"/><polygon points="326.51 293.1 326.51 361.98 326.51 384.23 176.25 470.98 176.25 297.47 326.49 210.73 326.51 210.74 326.51 293.1" style="fill:#c16752"/><polygon points="176.25 297.47 99.66 253.25 249.89 166.51 326.49 210.73 176.25 297.47" style="fill:#af593c"/><polygon points="243.01 162.53 249.89 166.51 99.66 253.25 99.65 253.25 26.02 210.73 176.25 123.99 211.13 144.13 243.01 162.53" style="fill:#c16752"/><polygon points="176.25 297.47 176.25 470.98 26 384.23 26 210.74 26.02 210.73 99.65 253.25 99.66 253.25 176.25 297.47" style="fill:#e48e66"/></g></svg>
