<?xml version="1.0"?>
<svg xmlns="http://www.w3.org/2000/svg" id="Layer_1" data-name="Layer 1" viewBox="0 0 512 512" width="512" height="512"><title>Parcel boxses</title><g id="_Group_2" data-name=" Group 2"><polygon points="491 289.78 491 425.36 373.59 493.15 373.59 357.56 491 289.78" style="fill:#c16752"/><polygon points="256.9 289.36 373.59 221.99 374.24 222.36 491 289.78 373.59 357.56 337.99 336.91 401.43 299.56 368.89 279.67 303.81 317.06 303.44 317.06 256.17 289.78 256.9 289.36" style="fill:#e48e66"/><polygon points="373.59 357.56 373.59 493.15 256.17 425.36 255.83 425.36 255.83 289.78 256.17 289.78 303.44 317.06 303.81 317.06 303.81 404.13 338.16 438.02 337.99 336.91 373.59 357.56" style="fill:#cc7266"/><polygon points="401.43 299.56 337.99 336.91 338.16 438.02 303.81 404.13 303.81 317.06 368.89 279.67 401.43 299.56" style="fill:#6fe3ff"/><polygon points="374.32 86.64 374.32 222.22 374.24 222.36 373.59 221.99 256.9 289.36 256.9 154.42 374.32 86.64" style="fill:#c16752"/><polygon points="374.32 86.64 256.9 154.42 221.3 133.77 284.75 96.42 252.21 76.54 187.13 113.92 186.76 113.92 139.49 86.64 256.9 18.85 374.32 86.64" style="fill:#e48e66"/><polygon points="284.75 96.42 221.3 133.77 221.48 234.88 187.13 200.99 187.13 113.92 252.21 76.54 284.75 96.42" style="fill:#6fe3ff"/><polygon points="256.9 154.42 256.9 289.36 256.17 289.78 255.83 289.78 139.32 222.52 139.49 222.22 139.49 86.64 186.76 113.92 187.13 113.92 187.13 200.99 221.48 234.88 221.3 133.77 256.9 154.42" style="fill:#cc7266"/><polygon points="255.83 289.78 255.83 425.36 138.41 493.15 138.41 357.56 255.83 289.78" style="fill:#c16752"/><polygon points="255.83 289.78 138.41 357.56 102.81 336.91 166.26 299.56 133.72 279.67 68.64 317.06 68.27 317.06 21 289.78 138.41 221.99 139.32 222.52 255.83 289.78" style="fill:#e48e66"/><polygon points="166.26 299.56 102.81 336.91 102.99 438.02 68.64 404.13 68.64 317.06 133.72 279.67 166.26 299.56" style="fill:#6fe3ff"/><polygon points="138.41 357.56 138.41 493.15 21 425.36 21 289.78 68.27 317.06 68.64 317.06 68.64 404.13 102.99 438.02 102.81 336.91 138.41 357.56" style="fill:#cc7266"/></g></svg>
