<?xml version="1.0"?>
<svg xmlns="http://www.w3.org/2000/svg" id="Layer_1" data-name="Layer 1" viewBox="0 0 512 512" width="512" height="512"><title> Clipboard </title><g id="_Group_2" data-name=" Group 2"><rect x="423.86" y="239.38" width="60.14" height="174.24" style="fill:#f8ec7d"/><rect x="423.86" y="207.7" width="60.14" height="31.68" style="fill:#6fe3ff"/><polygon points="484 78.57 484 207.7 423.86 207.7 423.86 78.57 439.47 78.57 475.04 78.57 484 78.57" style="fill:#e48e66"/><polygon points="484 413.62 453.93 478.38 423.86 413.62 484 413.62" style="fill:#e48e66"/><path d="M454,33.62c11.73,0,21.24,10.03,21.15,22.35l-.11,20.48v2.12H439.47l-6.66-.04.01-2.08V55.79c0-12.19,9.39-22.09,21.02-22.17Z" style="fill:#f8ec7d"/><path d="M348.51,167.97v272.4c0,20.99-16.25,38.01-36.29,38.01H64.28C44.24,478.38,28,461.36,28,440.37V72.95c0-20.99,16.25-38.01,36.28-38.01H215.47V142.63c0,14,10.83,25.34,24.19,25.34Z" style="fill:#e48e66"/><path d="M348.51,162.9v5.07H239.66c-13.36,0-24.19-11.34-24.19-25.34V34.94h3.02Z" style="fill:#f8ec7d"/><path d="M281.99,327.01H88.47a7,7,0,0,1,0-14H281.99a7,7,0,0,1,0,14Z" style="fill:#f8ec7d"/><path d="M191.28,250.99H88.47a7,7,0,0,1,0-14H191.28a7,7,0,0,1,0,14Z" style="fill:#f8ec7d"/><path d="M281.99,403.03H88.47a7,7,0,0,1,0-14H281.99a7,7,0,0,1,0,14Z" style="fill:#f8ec7d"/><path d="M393.76,219.14a7,7,0,0,1-7-7V78.27a7,7,0,0,1,7-7h.047l45.7.3a7,7,0,0,1-.084,14l-38.668-.254V212.14A7,7,0,0,1,393.76,219.14Z" style="fill:#e5d667"/></g></svg>
