<?xml version="1.0"?>
<svg xmlns="http://www.w3.org/2000/svg" id="Layer_1" data-name="Layer 1" viewBox="0 0 512 512" width="512" height="512"><title>Search Logistics</title><g id="_Group_2" data-name=" Group 2"><path d="M368.66,368.66l15.17-15.17,96.78,96.77a19,19,0,0,1,0,26.87l-3.48,3.48a19,19,0,0,1-26.87,0l-96.77-96.78Z" style="fill:#f8ec7d"/><path d="M106.55,148.8h-.01V264.27l100,57.74,100-57.74V148.8h-.01l-50.98-29.44L206.54,91.07ZM334.32,78.75c70.57,70.58,70.57,185,0,255.57s-184.99,70.57-255.57,0A180.715,180.715,0,0,1,334.32,78.75Z" style="fill:#e48e66"/><polygon points="306.54 148.8 306.54 264.27 206.54 322.01 206.54 206.53 306.53 148.8 306.54 148.8" style="fill:#33c4e5"/><polygon points="206.54 206.53 155.55 177.09 255.55 119.36 306.53 148.8 206.54 206.53" style="fill:#6fe3ff"/><polygon points="255.55 119.36 155.55 177.09 106.55 148.8 206.54 91.07 255.55 119.36" style="fill:#33c4e5"/><polygon points="206.54 206.53 206.54 322.01 106.54 264.27 106.54 148.8 106.55 148.8 155.55 177.09 206.54 206.53" style="fill:#6fe3ff"/><rect x="344.89" y="327.042" width="14.001" height="49.695" transform="translate(-145.757 351.887) rotate(-45)" style="fill:#6fe3ff"/></g></svg>
